<?xml version="1.0" standalone="no"?>
<!DOCTYPE svg PUBLIC "-//W3C//DTD SVG 20010904//EN"
 "http://www.w3.org/TR/2001/REC-SVG-20010904/DTD/svg10.dtd">
<svg version="1.0" xmlns="http://www.w3.org/2000/svg"
 width="300.000000pt" height="300.000000pt" viewBox="0 0 300.000000 300.000000"
 preserveAspectRatio="xMidYMid meet">
<metadata>
Created by potrace 1.10, written by Peter Selinger 2001-2011
</metadata>
<g transform="translate(0.000000,300.000000) scale(0.100000,-0.100000)"
fill="#000000" stroke="none">
<path d="M448 2450 c-128 -44 -222 -135 -268 -256 -21 -57 -21 -68 -21 -695
l0 -638 24 -61 c48 -117 139 -204 260 -247 62 -22 65 -22 738 -23 650 0 679 1
742 20 81 25 149 71 203 137 61 74 86 148 92 265 4 91 11 114 27 88 11 -18
299 -247 332 -264 73 -37 176 -10 230 61 l28 36 0 627 0 627 -28 36 c-54 71
-157 98 -230 61 -33 -17 -321 -246 -332 -264 -3 -5 -12 -10 -18 -10 -8 0 -12
29 -13 98 0 77 -5 109 -23 155 -46 116 -147 209 -268 247 -63 19 -92 20 -742
20 -647 -1 -678 -2 -733 -20z m1494 -48 c80 -32 160 -108 199 -188 26 -53 32
-78 36 -156 6 -99 20 -138 53 -138 11 0 88 55 172 122 166 133 206 158 253
158 43 0 96 -30 122 -69 l23 -34 0 -594 c0 -645 1 -627 -55 -671 -14 -12 -40
-24 -56 -27 -63 -14 -94 2 -262 136 -89 71 -173 132 -186 136 -40 10 -61 -26
-61 -106 0 -171 -91 -314 -238 -373 l-57 -23 -700 0 -700 0 -67 32 c-84 40
-151 106 -189 186 l-29 62 0 637 c-1 611 0 638 19 688 47 124 151 215 274 240
23 4 346 7 717 7 l675 -2 57 -23z"/>
<path d="M492 2305 c-94 -29 -162 -112 -181 -219 -15 -85 -15 -1091 0 -1171
14 -77 38 -123 87 -167 75 -68 73 -68 794 -68 407 0 657 4 680 10 69 20 130
70 163 135 l30 60 0 615 0 615 -29 58 c-33 67 -84 110 -159 132 -71 21 -1318
21 -1385 0z m1384 -40 c56 -16 112 -69 135 -125 11 -29 14 -143 14 -640 0
-667 2 -643 -64 -713 -64 -68 -57 -67 -771 -67 -718 0 -714 0 -781 70 -64 67
-64 70 -64 710 0 458 3 585 14 622 19 68 65 116 131 138 52 18 94 19 696 20
535 0 649 -2 690 -15z"/>
<path d="M1155 1901 c-11 -5 -29 -19 -40 -31 -18 -20 -20 -36 -20 -151 l0
-129 -128 0 -129 0 -29 -29 c-20 -20 -29 -39 -29 -61 0 -22 9 -41 29 -61 l29
-29 129 0 128 0 0 -129 c0 -115 2 -131 20 -151 29 -33 62 -42 101 -30 55 19
64 43 64 185 l0 125 130 0 c126 0 132 1 155 25 19 18 25 35 25 65 0 30 -6 47
-25 65 -23 24 -29 25 -155 25 l-130 0 0 125 c0 140 -9 166 -62 184 -35 13 -36
13 -63 2z m67 -58 c15 -14 18 -32 18 -128 0 -105 2 -114 25 -139 23 -25 28
-26 136 -26 118 0 149 -10 149 -50 0 -38 -30 -48 -153 -52 -154 -4 -156 -6
-157 -162 0 -119 -10 -146 -55 -146 -41 0 -50 25 -54 152 -4 156 -7 158 -165
158 -121 0 -136 6 -136 50 0 44 15 50 136 50 96 0 115 3 137 20 24 19 25 25
29 139 3 125 12 151 51 151 11 0 29 -7 39 -17z"/>
<path d="M2596 2055 c-69 -47 -384 -304 -400 -327 -24 -34 -24 -423 0 -457 22
-31 406 -337 434 -346 16 -5 28 -1 44 14 21 21 21 24 21 560 0 516 -1 540 -19
560 -24 27 -35 26 -80 -4z m64 -554 l0 -560 -220 177 -220 176 0 206 0 206
218 176 c119 97 218 176 220 177 1 1 2 -251 2 -558z"/>
</g>
</svg>
